<svg xmlns="http://www.w3.org/2000/svg" viewBox="0 0 200 150" width="200" height="150">
  <defs>
    <linearGradient id="blueGrad" x1="0%" y1="0%" x2="100%" y2="100%">
      <stop offset="0%" style="stop-color:#1E6FFF;stop-opacity:1" />
      <stop offset="100%" style="stop-color:#0A4BDF;stop-opacity:1" />
    </linearGradient>
    <linearGradient id="arrowGrad" x1="0%" y1="0%" x2="100%" y2="100%">
      <stop offset="0%" style="stop-color:#E8EEF8;stop-opacity:1" />
      <stop offset="50%" style="stop-color:#C5D0E8;stop-opacity:1" />
      <stop offset="100%" style="stop-color:#9BAEC8;stop-opacity:1" />
    </linearGradient>
    <linearGradient id="arrowLight" x1="0%" y1="0%" x2="80%" y2="100%">
      <stop offset="0%" style="stop-color:#FFFFFF;stop-opacity:1" />
      <stop offset="100%" style="stop-color:#D0D8E8;stop-opacity:1" />
    </linearGradient>
  </defs>
  
  <!-- T letter -->
  <polygon points="10,18 95,18 85,42 62,42 62,132 38,132 38,42 10,42" fill="url(#blueGrad)" />
  
  <!-- P letter -->
  <path d="M72,42 L72,132 L96,132 L96,100 L130,100 C155,100 170,85 170,65 C170,45 155,42 130,42 Z M96,60 L125,60 C140,60 148,65 148,71 C148,77 140,82 125,82 L96,82 Z" fill="url(#blueGrad)" />
  
  <!-- Paper airplane / Arrow -->
  <polygon points="65,28 148,58 100,72 85,95 75,60" fill="url(#arrowLight)" />
  <polygon points="100,72 85,95 75,60 65,28" fill="url(#arrowGrad)" />
  <line x1="65" y1="28" x2="85" y2="95" stroke="url(#blueGrad)" stroke-width="0.5" opacity="0.3" />
</svg>
