<?xml version="1.0" encoding="UTF-8" standalone="no"?>
<!-- Created with Inkscape (http://www.inkscape.org/) -->
<svg
   xmlns:svg="http://www.w3.org/2000/svg"
   xmlns="http://www.w3.org/2000/svg"
   version="1.0"
   width="1000"
   height="173"
   id="svg2">
  <defs
     id="defs5" />
  <path
     d="M 0.87094582,172.57542 C 0.52496602,172.20865 1.4955928,169.56663 3.0278938,166.70428 C 6.1496658,160.87278 72.407915,33.549766 76.731831,25.073496 C 80.975476,16.754586 90.040177,7.5980759 97.830119,3.7615259 L 104.45249,0.49999588 L 146.86939,0.19924588 L 189.2863,-0.10151412 L 188.548,68.432066 L 187.80969,136.96564 L 249.65485,136.34264 C 318.16143,135.65254 315.52172,135.92241 321.33442,129.01441 C 327.00747,122.27237 324.95484,112.05826 317.12407,108.06329 C 313.26342,106.09374 311.4537,105.99921 277.28984,105.98264 C 237.90657,105.96353 232.7696,105.42048 221.32903,100.06679 C 209.43153,94.499276 198.0454,81.219556 193.89657,68.072126 C 191.34666,59.991586 191.15734,46.226676 193.47713,37.574866 C 198.17759,20.044156 211.52411,7.5361559 231.05289,2.3598959 C 236.71646,0.85871588 245.00469,0.60394588 299.25,0.26358588 L 361,-0.12386412 L 361,18.438066 L 361,36.999996 L 305.40113,36.999996 C 243.19178,36.999996 245.15514,36.786246 240.3252,44.084786 C 236.71005,49.547636 236.26282,54.845736 238.9485,60.393606 C 243.0638,68.894696 242.40455,68.766116 284.5,69.278246 C 314.8286,69.647216 322.66927,70.031116 327.98483,71.407366 C 348.99027,76.845876 364.38143,90.788356 368.45429,108.06767 C 370.351,116.11457 370.35834,120.6361 368.48908,129.5 C 364.54096,148.22169 351.38883,163.02837 332.60204,169.90166 L 325.5,172.5 L 232.75715,172.78439 L 140.0143,173.06879 L 139.75715,106.78439 L 139.5,40.499996 L 136.06718,40.173006 C 125.49792,39.166226 120.28587,43.552446 112.0712,60.366906 C 108.81102,67.040106 95.529519,94.534276 82.556749,121.46505 C 69.583979,148.39583 58.639169,170.75117 58.234948,171.14358 C 57.283361,172.06737 1.7004209,173.45475 0.87094582,172.57542 z M 376,85.953876 L 376,-0.092254118 L 432.75,0.20387588 L 489.5,0.49999588 L 497.97598,3.4571759 C 509.82486,7.5911259 519.84149,14.512926 524.86826,22.040586 C 529.88782,29.557436 531.36778,36.045416 530.83606,48.202776 C 530.47661,56.421246 529.98167,58.594926 527.16878,64.308736 C 521.4838,75.856566 511.91478,82.603886 494.68683,87.212456 L 489.87366,88.499996 L 497.54801,93.499996 C 508.21689,100.45101 516.44037,109.52266 521.08286,119.46227 C 525.97579,129.93806 528.08415,140.33787 528.74359,157.25 L 529.27973,171 L 501.78148,171 L 474.28323,171 L 473.69541,160.25 C 472.69983,142.04301 468.26271,130.12087 459.06704,120.94488 C 450.66179,112.55762 440.96136,108.71075 424.82309,107.36487 L 417,106.71245 L 417,139.35622 L 417,172 L 396.5,172 L 376,172 L 376,85.953876 z M 469.5,64.499996 C 477.00837,60.745816 479.08885,50.997946 473.56145,45.470546 C 469.75369,41.662776 464.89465,41.011486 440.25,41.005576 L 417,40.999996 L 417,54.090846 L 417,67.181696 L 441.25,66.840846 C 463.09144,66.533856 465.89729,66.301356 469.5,64.499996 z M 599.98347,170.9738 C 579.5432,168.57942 560.86777,160.35601 547.52519,147.87468 C 508.35006,111.22827 532.56289,57.024206 593.25036,45.511996 C 604.38665,43.399476 623.32329,43.574656 634.5,45.893586 C 663.72032,51.956176 686.89698,69.563646 694.53157,91.499996 C 696.80279,98.025866 697.53843,111.08945 696.04089,118.30302 C 689.02259,152.11 645.00253,176.24735 599.98347,170.9738 z M 622.46504,142.46709 C 638.3034,138.34172 648.29283,128.01374 651.07402,112.88852 C 652.06484,107.50004 651.99013,105.48251 650.5967,99.999996 C 647.72649,88.707026 640.71602,80.569316 629.21268,75.177596 C 624.10301,72.782636 622.33888,72.499996 612.5,72.499996 C 602.51108,72.499996 600.98306,72.753966 595.87601,75.263006 C 587.60125,79.328316 581.55728,85.122566 577.9515,92.446946 C 567.72421,113.22153 579.6809,136.68893 603.5,142.59098 C 610.39485,144.29943 615.55975,144.26569 622.46504,142.46709 z M 604.80321,133.6556 C 580.08973,126.71321 576.57928,95.481876 599.20874,83.883286 C 605.10518,80.861106 616.03829,80.187696 622.79148,82.430746 C 628.87071,84.449936 636.28054,90.721756 639.26211,96.371786 C 642.69888,102.88442 642.37246,112.89002 638.49324,119.93931 C 632.32269,131.1524 617.44895,137.20798 604.80321,133.6556 z M 789.84657,170.89767 C 752.54626,168.0251 722.36589,154.01304 708.69684,133.22168 C 702.23312,123.39002 700.5,118.0572 700.5,108 C 700.5,97.978036 702.23462,92.608466 708.60138,82.921906 C 718.36061,68.073976 735.24089,56.724786 756.97018,50.401916 C 772.77548,45.802826 781.8132,44.790976 811.75,44.268886 L 840,43.776216 L 840,58.730056 L 840,73.683886 L 820.75,74.339516 C 810.10678,74.702006 798.38309,75.664236 794.52869,76.491646 C 780.03827,79.602256 766.42115,88.367126 762.04975,97.397226 C 759.28553,103.10735 759.29804,111.91849 762.07852,117.6622 C 766.3286,126.4417 779.14168,135.07047 793.0882,138.5452 C 797.34928,139.60684 806.2925,140.33186 819.75,140.70667 L 840,141.27065 L 840,156.63533 L 840,172 L 820.25,171.85906 C 809.3875,171.78154 795.70596,171.34891 789.84657,170.89767 z M 846,85.999996 L 846,-4.1176471e-06 L 872.5,-4.1176471e-06 L 899,-4.1176471e-06 L 899,37.999996 L 899,75.999996 L 907.7899,75.999996 C 928.71912,75.999996 942.97284,67.858076 951.00905,51.312616 L 954.5,44.125226 L 975.78138,44.062616 C 1000.2084,43.990746 998.52106,43.250036 998.41926,53.999996 C 998.28926,67.727616 988.74106,80.754096 972.16452,89.819046 L 967.14185,92.565706 L 974.03507,97.956146 C 992.06513,112.05551 998.69006,127.08843 999.72486,156.25 L 1000.2837,172 L 975.26129,172 L 950.2389,172 L 949.53958,161.25 C 947.86244,135.46878 941.11856,121.59362 926.894,114.65799 C 920.59624,111.58731 913.08886,110 904.86351,110 L 899,110 L 899,141 L 899,172 L 872.5,172 L 846,172 L 846,85.999996 z"
     id="path2384"
     style="fill:#79bd28;fill-opacity:1" />
</svg>
