<svg xmlns="http://www.w3.org/2000/svg" height="800" width="1200" viewBox="-46.9203 -9.96275 406.6426 59.7765"><path fill="#005DAA" d="M297.884.128h5.692v.936h-2.311v6.488h-1.066V1.064h-2.315zm10.869 6.158l2.293-6.158h1.756v7.424h-1.066V1.13h-.018l-2.461 6.422h-1.056l-2.457-6.422h-.022v6.422h-1.072V.128h1.762zM46.272 0h10.603v39.625H46.272zm73.259.033h13.006l15.344 39.818h-11.635l-2.969-8.495h-14.945l-3.142 8.495h-10.781L119.531.033m6.501 8.214h-.111l-5.138 15.576h9.983l-4.734-15.576M153.044.028h18.317c7.412 0 12.949 3.249 12.949 10.094 0 5.028-2.566 7.826-7.015 9.304v.111c5.297 1.091 8.042 3.94 8.042 8.795 0 9.526-8.387 11.518-15.516 11.518h-16.777V.028m10.608 32.302h3.146c3.877 0 7.926-.577 7.926-4.624 0-4.342-4.164-4.735-7.811-4.735h-3.262v9.359m.001-16.551h2.97c3.482 0 7.072-.856 7.072-4.225 0-3.653-3.417-3.987-6.953-3.987h-3.089v8.212m36.05 9.073L184.988.028h12.205l7.819 15.976L212.713.028h12.214l-14.613 24.824v14.999h-10.612V24.852m39.399-16.951h-9.807V.028h30.235v7.873h-9.807v31.95h-10.621V7.901M264.58.028h28.07v7.539h-17.463v8.212h16.488v7.529h-16.488v9.022h18.086v7.521H264.58V.028M22.176 8.747c-7.059.587-10.913 5.221-10.913 11.218 0 5.831 5.403 10.732 10.621 10.732l1.146-.012h1.929s1.279 0 1.288-1.247V16.923h10.896c0 7.064-.026 22.928-.026 22.928s-10.754-.009-16.998-.009C8.377 39.842 0 30.142 0 19.965 0 8.957 9.112-.237 20.458.17l16.299.051-.008 8.525H22.176m63.053.001c-7.062.586-10.909 5.22-10.909 11.218 0 5.831 5.395 10.732 10.617 10.732l1.142-.012h1.934s1.27 0 1.279-1.247V16.923h10.878c0 7.064-.018 22.928-.018 22.928s-10.745-.009-16.985-.009c-11.736 0-20.104-9.7-20.104-19.877 0-11.008 9.103-20.202 20.454-19.794l16.272.051-.004 8.525H85.229"/></svg>