<svg xmlns="http://www.w3.org/2000/svg" viewBox="0 0 240 80" width="240" height="80"><path fill="#0068B5" d="M45,22 C41,22 38,25 38,29 C38,33 41,36 45,36 C49,36 52,33 52,29 C52,25 49,22 45,22 Z M40,40 L50,40 L50,60 L40,60 Z M58,40 L67,40 L67,43 C70,40 75,39 80,39 C89,39 94,44 94,52 L94,60 L84,60 L84,53 C84,48 82,46 78,46 C73,46 70,49 70,54 L70,60 L60,60 L60,40 Z M100,40 L108,40 L108,32 L118,32 L118,40 L127,40 L127,47 L118,47 L118,55 C118,57 119,58 122,58 L127,58 L127,65 L120,65 C111,65 108,61 108,54 L108,47 L100,47 Z M132,50 C132,43 138,39 148,39 C157,39 163,44 163,51 C163,52 163,53 163,54 L141,54 C142,57 146,59 150,59 C154,59 157,58 159,56 L164,61 C160,64 155,66 149,66 C138,66 132,59 132,50 Z M153,48 C153,45 150,44 147,44 C143,44 141,46 141,48 Z M169,25 L179,25 L179,60 L169,60 Z"/></svg>